<svg id="Layer_1" data-name="Layer 1" xmlns="http://www.w3.org/2000/svg" viewBox="0 0 170.08 31.38"><defs><style>.cls-1{fill:#fff;}</style></defs><path class="cls-1" d="M13.93,26a2.11,2.11,0,0,0,.15-.15,4.81,4.81,0,0,1-.91-.89,1,1,0,0,0-1.09-.51l-10.21.34a.55.55,0,0,1-.66-.49c-.1-.43-.2-.86-.28-1.3s.09-.66.52-.7c.86-.08,1.72-.18,2.59-.2,2.72-.1,5.44-.17,8.17-.23.21,0,.33-.05.4-.27a3.28,3.28,0,0,1,1.3-1.66c.08-.05.14-.12.23-.19a3.38,3.38,0,0,1-1.68-4c.54-1.89,2-2.64,3.95-2.53-.14-2.2-.27-4.37-.41-6.58h.86c.06.62.15,1.24.18,1.87.09,1.6.16,3.2.24,4.8a.87.87,0,0,0,.1.31,3.7,3.7,0,0,1,4-3.43C21.2,8.87,21,7.6,20.83,6.31l.29-.07a1.41,1.41,0,0,0,1.1-1.64A15.12,15.12,0,0,0,21.86,3a1.39,1.39,0,0,0-1.44-1L20,2c-.19,0-.29,0-.35-.23-.11-.39-.24-.77-.37-1.16S19,0,18.43,0H3.78c-.53,0-.62.07-.8.58-.1.3-.19.61-.3.91C2.49,2,2.65,2,2,2A1.3,1.3,0,0,0,.5,2.7,8.68,8.68,0,0,0,0,5c0,.7.45,1.1,1.41,1.36a40.43,40.43,0,0,0-.75,7.51,39.91,39.91,0,0,0,.71,7.48l-.2.06A1.4,1.4,0,0,0,0,23.05c.09.53.2,1,.33,1.56a1.42,1.42,0,0,0,1.42,1.07,2.61,2.61,0,0,1,.48,0,.46.46,0,0,1,.31.2c.17.43.31.86.45,1.29a.61.61,0,0,0,.66.47q4.32,0,8.66,0a.38.38,0,0,0,.42-.26A3.13,3.13,0,0,1,13.93,26ZM6.27,21l-.92,0a66,66,0,0,1,0-14.46h.91A64.38,64.38,0,0,0,6.27,21Zm5.28-.13h-.86V6.74h.86ZM15.83.9a.24.24,0,0,1,.18.17c.08.34.14.69.22,1.14-.29,0-.54,0-.79,0-.06,0-.14-.09-.16-.15-.08-.37-.14-.74-.22-1.16A6.44,6.44,0,0,1,15.83.9ZM10.7.91h.85V2.27H10.7ZM6.24.91h.92c-.07.4-.12.77-.21,1.14a.25.25,0,0,1-.19.15c-.23,0-.46,0-.75,0C6.09,1.74,6.17,1.34,6.24.91ZM1,4.48c.08-.36.15-.72.23-1.08s.24-.55.7-.53c2,.09,3.91.2,5.87.26a113.15,113.15,0,0,0,11.79-.22c.29,0,.59,0,.88,0a.48.48,0,0,1,.56.42c.11.48.23,1,.32,1.44s-.14.61-.58.65c-.63.06-1.27.12-1.91.15-2.54.12-5.07.22-8,.34-2.83-.15-6-.31-9.2-.49C1,5.35.83,5.14,1,4.48ZM6.39,26.72a.24.24,0,0,1-.18-.14c-.08-.36-.14-.72-.2-1.07,0,0,.07-.05.09-.05.81-.1.81-.1,1,.69a5.73,5.73,0,0,1,.1.58C6.87,26.73,6.63,26.74,6.39,26.72Zm5.17,0h-.89c0-.39,0-.8,0-1.2,0-.05.11-.15.18-.16.22,0,.44,0,.7,0Z"/><path class="cls-1" d="M28.51,10a3,3,0,0,1,.22-.28c.33-.39.67-.76,1-1.15a3.09,3.09,0,0,0-2.92-5,3,3,0,0,0-1.74,1,.45.45,0,1,0,.65.63A1.59,1.59,0,0,0,25.84,5a2.17,2.17,0,0,1,3.6,1,2.13,2.13,0,0,1-.49,2c-1.44,1.66-2.87,3.32-4.32,5a.65.65,0,0,0-.15.72,3.51,3.51,0,0,0,2-1.41,1.71,1.71,0,0,0,.22-.25c.13-.19.25-.2.47-.11a6.16,6.16,0,0,0,5.54-.41A4.34,4.34,0,0,0,34,10.4,6.49,6.49,0,0,0,28.51,10Z"/><path class="cls-1" d="M26.27,20.28a2.55,2.55,0,1,0,2.55,2.53A2.55,2.55,0,0,0,26.27,20.28Z"/><path class="cls-1" d="M13.3,22.78a2.55,2.55,0,0,0,5.09,0,2.55,2.55,0,1,0-5.09,0Z"/><path class="cls-1" d="M18.31,16.64a2.54,2.54,0,0,0-2.53-2.55,2.54,2.54,0,1,0,0,5.08A2.52,2.52,0,0,0,18.31,16.64Z"/><path class="cls-1" d="M26.23,19.31a2.55,2.55,0,1,0-2.52-2.55A2.53,2.53,0,0,0,26.23,19.31Z"/><path class="cls-1" d="M15.94,26.28a2.55,2.55,0,1,0-.12,5.1,2.57,2.57,0,0,0,2.59-2.5A2.54,2.54,0,0,0,15.94,26.28Z"/><path class="cls-1" d="M21,23.28a2.54,2.54,0,1,0,2.58,2.54A2.54,2.54,0,0,0,21,23.28Z"/><path class="cls-1" d="M21,16.18a2.54,2.54,0,0,0,2.53-2.54,2.54,2.54,0,1,0-5.07,0A2.54,2.54,0,0,0,21,16.18Z"/><path class="cls-1" d="M21,22.32a2.55,2.55,0,1,0-2.53-2.55A2.54,2.54,0,0,0,21,22.32Z"/><polygon class="cls-1" points="55.15 18.77 49.12 3.65 43.15 18.77 38.17 4.7 34.06 4.7 42.65 26.82 49.12 11.99 55.6 26.82 64.18 4.7 60.07 4.7 55.15 18.77"/><rect class="cls-1" x="68.56" y="4.7" width="3.57" height="21"/><polygon class="cls-1" points="93.94 18.8 78.61 3.65 78.61 25.7 82.09 25.7 82.09 11.61 97.42 26.75 97.42 4.7 93.94 4.7 93.94 18.8"/><polygon class="cls-1" points="106.06 4.7 103.87 4.7 103.87 25.7 106.06 25.7 107.35 25.7 116.65 25.7 116.65 22.58 107.35 22.58 107.35 15.98 116.05 15.98 116.05 12.92 107.35 12.92 107.35 7.82 116.65 7.82 116.65 4.7 107.35 4.7 106.06 4.7"/><rect class="cls-1" x="122.8" y="4.7" width="3.57" height="21"/><path class="cls-1" d="M142.54,4.34a11.41,11.41,0,0,0-4.29.8,10.56,10.56,0,0,0-3.46,2.23,10.12,10.12,0,0,0-2.31,3.44,11.37,11.37,0,0,0-.83,4.39,11.42,11.42,0,0,0,.83,4.4A10.08,10.08,0,0,0,134.79,23a10.58,10.58,0,0,0,3.46,2.24,11.4,11.4,0,0,0,4.29.79,11.27,11.27,0,0,0,3.86-.57,9.5,9.5,0,0,0,2.83-1.65V19.61a9.51,9.51,0,0,1-1.68,1.53,7.47,7.47,0,0,1-2.17,1.08,8.89,8.89,0,0,1-2.72.39,7.09,7.09,0,0,1-5-2,7,7,0,0,1-1.58-2.34,7.86,7.86,0,0,1-.57-3.05,7.81,7.81,0,0,1,.57-3,7,7,0,0,1,1.58-2.34,7.1,7.1,0,0,1,2.29-1.5,7.18,7.18,0,0,1,2.73-.53,9.21,9.21,0,0,1,2.72.39,8,8,0,0,1,2.17,1.07,8.53,8.53,0,0,1,1.68,1.54V6.56a9.5,9.5,0,0,0-2.83-1.65A11.27,11.27,0,0,0,142.54,4.34Z"/><polygon class="cls-1" points="166.03 4.7 161.14 13.7 156.28 4.7 152.23 4.7 159.34 16.88 159.34 25.7 162.97 25.7 162.97 16.86 170.08 4.7 166.03 4.7"/></svg>